# xmcd CD database file
#
# Track frame offsets:
#	150
#	11047
#	22952
#	34465
#	49057
#	62210
#	75290
#	90430
#	102807
#	116975
#	129645
#	143877
#	163002
#	178282
#	190722
#	204592
#	219257
#	237690
#	250827
#	267015
#
# Disc length: 3753 seconds
#
# Revision: 0
# Processed by: cddbd v1.5.1PL0 Copyright (c) Steve Scherf et al.
# Submitted via: CDex 1.51
#
DISCID=1a0ea714
DTITLE=Suzanne Klee - My Early Collection
DYEAR=1980
DGENRE=Country
TTITLE0=Meant for Eath Other
TTITLE1=I'll Never Get Over You
TTITLE2=If It Gets Any Better Than This
TTITLE3=Favorite Memory Of Mind
TTITLE4=I Tried Not Fallin' In Love With You
TTITLE5=Sometimes You Don't Knoe It's Love
TTITLE6=I Wake Up Wanting You
TTITLE7=Let Me Be The One
TTITLE8=Mother Country Music
TTITLE9=For No Reason At All
TTITLE10=Say A Long Goodbay
TTITLE11=It Was Time
TTITLE12=Fallin' In Love Fallin' Apart 
TTITLE13=Red Red Wine
TTITLE14=Wenn Du Nicht Weisst Wohin
TTITLE15=Deine Augen Reden Zuviel
TTITLE16=Leavin' You Is Easier
TTITLE17=Nein Das Seh Ich Nicht Ein
TTITLE18=Make It Pretty For Me
TTITLE19=Substitute
EXTD=YEAR: 1980
EXTT0=
EXTT1=
EXTT2=
EXTT3=
EXTT4=
EXTT5=
EXTT6=
EXTT7=
EXTT8=
EXTT9=
EXTT10=
EXTT11=
EXTT12=
EXTT13=
EXTT14=
EXTT15=
EXTT16=
EXTT17=
EXTT18=
EXTT19=
PLAYORDER=
